<svg width="1434" height="2032" viewBox="0 0 1434 2032" fill="none" xmlns="http://www.w3.org/2000/svg">
<path d="M717 0V209.942C717 220.988 708.046 229.942 697 229.942L23 229.942C11.9543 229.942 3 238.896 3 249.942V755.402C3 766.448 11.9543 775.402 23 775.402H1411C1422.05 775.402 1431 784.357 1431 795.402V1305.64C1431 1316.69 1422.05 1325.64 1411 1325.64H23C11.9543 1325.64 3 1334.6 3 1345.64V1852.17C3 1863.21 11.9543 1872.17 23 1872.17H697C708.046 1872.17 717 1881.12 717 1892.17V2032" stroke="#BD00FF" stroke-width="6"/>
</svg>
