<svg width="1428" height="1688" viewBox="0 0 1428 1688" fill="none" xmlns="http://www.w3.org/2000/svg">
<path d="M693.5 0.5V84C693.5 95.0457 684.546 104 673.5 104H23C11.9543 104 3 112.954 3 124V597.5C3 608.546 11.9543 617.5 23 617.5H1404.5C1415.55 617.5 1424.5 626.454 1424.5 637.5V1115.5C1424.5 1126.55 1415.55 1135.5 1404.5 1135.5H23C11.9543 1135.5 3 1144.45 3 1155.5V1630C3 1641.05 11.9543 1650 23 1650H681.5C692.546 1650 701.5 1658.95 701.5 1670V1687.5" stroke="#BD00FF" stroke-width="6"/>
</svg>

