<svg width="1434" height="1792" viewBox="0 0 1434 1792" fill="none" xmlns="http://www.w3.org/2000/svg">
<path d="M717 0V89.9419C717 100.988 708.046 109.942 697 109.942L23 109.942C11.9543 109.942 3 118.896 3 129.942V635.402C3 646.448 11.9543 655.402 23 655.402H1411C1422.05 655.402 1431 664.357 1431 675.402V1185.64C1431 1196.69 1422.05 1205.64 1411 1205.64H23C11.9543 1205.64 3 1214.6 3 1225.64V1732.17C3 1743.21 11.9543 1752.17 23 1752.17H697C708.046 1752.17 717 1761.12 717 1772.17V1792" stroke="#BD00FF" stroke-width="6"/>
</svg>
